# Blender v2.79 (sub 0) OBJ File: 'brick.blend'
# www.blender.org
o Top_Cube.002
v -0.008000 0.008000 0.032400
v -0.008000 0.008000 0.022800
v -0.008000 0.000000 0.032400
v -0.008000 0.000000 0.022800
v -0.016000 0.008000 0.032400
v -0.016000 0.008000 0.022800
v -0.016000 0.000000 0.032400
v -0.016000 0.000000 0.022800
v -0.012000 0.006400 0.032400
v -0.013697 0.005697 0.032400
v -0.014400 0.004000 0.032400
v -0.013697 0.002303 0.032400
v -0.012000 0.001600 0.032400
v -0.010303 0.002303 0.032400
v -0.009600 0.004000 0.032400
v -0.010303 0.005697 0.032400
v -0.010303 0.005697 0.034200
v -0.009600 0.004000 0.034200
v -0.010303 0.002303 0.034200
v -0.012000 0.001600 0.034200
v -0.013697 0.002303 0.034200
v -0.014400 0.004000 0.034200
v -0.013697 0.005697 0.034200
v -0.012000 0.006400 0.034200
v -0.012000 0.004000 0.034200
vn 0.0000 0.0000 -1.0000
vn 0.0000 1.0000 0.0000
vn 0.0000 0.0000 1.0000
vn -1.0000 0.0000 0.0000
vn 1.0000 0.0000 0.0000
vn 0.0000 -1.0000 0.0000
vn -0.5943 0.0000 0.8042
vn -0.4203 -0.4203 0.8042
vn -0.5490 -0.5490 0.6302
vn -0.7764 0.0000 0.6302
vn 0.4203 -0.4203 0.8042
vn 0.5943 0.0000 0.8042
vn 0.7764 0.0000 0.6302
vn 0.5490 -0.5490 0.6302
vn -0.4203 0.4203 0.8042
vn -0.5490 0.5490 0.6302
vn 0.0000 -0.5943 0.8042
vn 0.0000 -0.7764 0.6302
vn 0.4203 0.4203 0.8042
vn 0.0000 0.5943 0.8042
vn 0.0000 0.7764 0.6302
vn 0.5490 0.5490 0.6302
s off
f 6//1 2//1 4//1 8//1
f 6//2 5//2 1//2 2//2
f 14//3 13//3 3//3
f 7//3 3//3 13//3
f 13//3 12//3 7//3
f 11//3 7//3 12//3
f 7//3 11//3 5//3
f 11//3 10//3 5//3
f 9//3 5//3 10//3
f 5//3 9//3 1//3
f 9//3 16//3 1//3
f 15//3 1//3 16//3
f 1//3 15//3 3//3
f 15//3 14//3 3//3
f 24//3 23//3 25//3
f 20//3 19//3 25//3
f 19//3 18//3 25//3
f 23//3 22//3 25//3
f 22//3 21//3 25//3
f 18//3 17//3 25//3
f 17//3 24//3 25//3
f 21//3 20//3 25//3
f 5//4 6//4 8//4 7//4
f 2//5 1//5 3//5 4//5
f 8//6 4//6 3//6 7//6
s 1
f 11//7 12//8 21//9 22//10
f 14//11 15//12 18//13 19//14
f 10//15 11//7 22//10 23//16
f 13//17 14//11 19//14 20//18
f 16//19 9//20 24//21 17//22
f 12//8 13//17 20//18 21//9
f 15//12 16//19 17//22 18//13
f 9//20 10//15 23//16 24//21
o Middle_Cube.001
v -0.000000 0.008000 0.021000
v -0.000000 0.008000 0.011400
v -0.000000 0.000000 0.021000
v -0.000000 0.000000 0.011400
v -0.008000 0.008000 0.021000
v -0.008000 0.008000 0.011400
v -0.008000 0.000000 0.021000
v -0.008000 0.000000 0.011400
v -0.004000 0.006400 0.021000
v -0.005697 0.005697 0.021000
v -0.006400 0.004000 0.021000
v -0.005697 0.002303 0.021000
v -0.004000 0.001600 0.021000
v -0.002303 0.002303 0.021000
v -0.001600 0.004000 0.021000
v -0.002303 0.005697 0.021000
v -0.002303 0.005697 0.022800
v -0.001600 0.004000 0.022800
v -0.002303 0.002303 0.022800
v -0.004000 0.001600 0.022800
v -0.005697 0.002303 0.022800
v -0.006400 0.004000 0.022800
v -0.005697 0.005697 0.022800
v -0.004000 0.006400 0.022800
v -0.004000 0.004000 0.022800
v -0.016000 0.008000 0.021000
v -0.016000 0.008000 0.011400
v -0.016000 0.000000 0.021000
v -0.016000 0.000000 0.011400
v -0.012000 0.006400 0.021000
v -0.013697 0.005697 0.021000
v -0.014400 0.004000 0.021000
v -0.013697 0.002303 0.021000
v -0.012000 0.001600 0.021000
v -0.010303 0.002303 0.021000
v -0.009600 0.004000 0.021000
v -0.010303 0.005697 0.021000
v -0.010303 0.005697 0.022800
v -0.009600 0.004000 0.022800
v -0.010303 0.002303 0.022800
v -0.012000 0.001600 0.022800
v -0.013697 0.002303 0.022800
v -0.014400 0.004000 0.022800
v -0.013697 0.005697 0.022800
v -0.012000 0.006400 0.022800
v -0.012000 0.004000 0.022800
v -0.000000 -0.008000 0.021000
v -0.000000 -0.008000 0.011400
v -0.008000 -0.008000 0.021000
v -0.008000 -0.008000 0.011400
v -0.004000 -0.006400 0.021000
v -0.005697 -0.005697 0.021000
v -0.006400 -0.004000 0.021000
v -0.005697 -0.002303 0.021000
v -0.004000 -0.001600 0.021000
v -0.002303 -0.002303 0.021000
v -0.001600 -0.004000 0.021000
v -0.002303 -0.005697 0.021000
v -0.002303 -0.005697 0.022800
v -0.001600 -0.004000 0.022800
v -0.002303 -0.002303 0.022800
v -0.004000 -0.001600 0.022800
v -0.005697 -0.002303 0.022800
v -0.006400 -0.004000 0.022800
v -0.005697 -0.005697 0.022800
v -0.004000 -0.006400 0.022800
v -0.004000 -0.004000 0.022800
v -0.016000 -0.008000 0.021000
v -0.016000 -0.008000 0.011400
v -0.012000 -0.006400 0.021000
v -0.013697 -0.005697 0.021000
v -0.014400 -0.004000 0.021000
v -0.013697 -0.002303 0.021000
v -0.012000 -0.001600 0.021000
v -0.010303 -0.002303 0.021000
v -0.009600 -0.004000 0.021000
v -0.010303 -0.005697 0.021000
v -0.010303 -0.005697 0.022800
v -0.009600 -0.004000 0.022800
v -0.010303 -0.002303 0.022800
v -0.012000 -0.001600 0.022800
v -0.013697 -0.002303 0.022800
v -0.014400 -0.004000 0.022800
v -0.013697 -0.005697 0.022800
v -0.012000 -0.006400 0.022800
v -0.012000 -0.004000 0.022800
vn 0.0000 0.0000 -1.0000
vn 0.0000 1.0000 0.0000
vn 0.0000 0.0000 1.0000
vn -1.0000 0.0000 0.0000
vn 1.0000 0.0000 0.0000
vn 0.0000 -1.0000 0.0000
vn -0.5943 0.0000 0.8042
vn -0.4203 -0.4203 0.8042
vn -0.5490 -0.5490 0.6302
vn -0.7764 0.0000 0.6302
vn 0.4203 -0.4203 0.8042
vn 0.5943 0.0000 0.8042
vn 0.7764 0.0000 0.6302
vn 0.5490 -0.5490 0.6302
vn -0.4203 0.4203 0.8042
vn -0.5490 0.5490 0.6302
vn 0.0000 -0.5943 0.8042
vn 0.0000 -0.7764 0.6302
vn 0.4203 0.4203 0.8042
vn 0.0000 0.5943 0.8042
vn 0.0000 0.7764 0.6302
vn 0.5490 0.5490 0.6302
s off
f 31//23 27//23 29//23 33//23
f 31//24 30//24 26//24 27//24
f 39//25 38//25 28//25
f 32//25 28//25 38//25
f 38//25 37//25 32//25
f 36//25 32//25 37//25
f 32//25 36//25 30//25
f 36//25 35//25 30//25
f 34//25 30//25 35//25
f 30//25 34//25 26//25
f 34//25 41//25 26//25
f 40//25 26//25 41//25
f 26//25 40//25 28//25
f 40//25 39//25 28//25
f 49//25 48//25 50//25
f 45//25 44//25 50//25
f 44//25 43//25 50//25
f 48//25 47//25 50//25
f 47//25 46//25 50//25
f 43//25 42//25 50//25
f 42//25 49//25 50//25
f 46//25 45//25 50//25
f 52//23 31//23 33//23 54//23
f 52//24 51//24 30//24 31//24
f 60//25 59//25 32//25
f 53//25 32//25 59//25
f 59//25 58//25 53//25
f 57//25 53//25 58//25
f 53//25 57//25 51//25
f 57//25 56//25 51//25
f 55//25 51//25 56//25
f 51//25 55//25 30//25
f 55//25 62//25 30//25
f 61//25 30//25 62//25
f 30//25 61//25 32//25
f 61//25 60//25 32//25
f 70//25 69//25 71//25
f 66//25 65//25 71//25
f 65//25 64//25 71//25
f 69//25 68//25 71//25
f 68//25 67//25 71//25
f 64//25 63//25 71//25
f 63//25 70//25 71//25
f 67//25 66//25 71//25
f 51//26 52//26 54//26 53//26
f 27//27 26//27 28//27 29//27
f 73//27 29//27 28//27 72//27
f 75//23 33//23 29//23 73//23
f 75//28 73//28 72//28 74//28
f 81//25 28//25 80//25
f 32//25 80//25 28//25
f 80//25 32//25 79//25
f 78//25 79//25 32//25
f 32//25 74//25 78//25
f 78//25 74//25 77//25
f 76//25 77//25 74//25
f 74//25 72//25 76//25
f 76//25 72//25 83//25
f 82//25 83//25 72//25
f 72//25 28//25 82//25
f 82//25 28//25 81//25
f 91//25 92//25 90//25
f 87//25 92//25 86//25
f 86//25 92//25 85//25
f 90//25 92//25 89//25
f 89//25 92//25 88//25
f 85//25 92//25 84//25
f 84//25 92//25 91//25
f 88//25 92//25 87//25
f 94//23 54//23 33//23 75//23
f 94//28 75//28 74//28 93//28
f 100//25 32//25 99//25
f 53//25 99//25 32//25
f 99//25 53//25 98//25
f 97//25 98//25 53//25
f 53//25 93//25 97//25
f 97//25 93//25 96//25
f 95//25 96//25 93//25
f 93//25 74//25 95//25
f 95//25 74//25 102//25
f 101//25 102//25 74//25
f 74//25 32//25 101//25
f 101//25 32//25 100//25
f 110//25 111//25 109//25
f 106//25 111//25 105//25
f 105//25 111//25 104//25
f 109//25 111//25 108//25
f 108//25 111//25 107//25
f 104//25 111//25 103//25
f 103//25 111//25 110//25
f 107//25 111//25 106//25
f 93//26 53//26 54//26 94//26
s 1
f 36//29 37//30 46//31 47//32
f 39//33 40//34 43//35 44//36
f 35//37 36//29 47//32 48//38
f 38//39 39//33 44//36 45//40
f 41//41 34//42 49//43 42//44
f 37//30 38//39 45//40 46//31
f 40//34 41//41 42//44 43//35
f 34//42 35//37 48//38 49//43
f 57//29 58//30 67//31 68//32
f 60//33 61//34 64//35 65//36
f 56//37 57//29 68//32 69//38
f 59//39 60//33 65//36 66//40
f 62//41 55//42 70//43 63//44
f 58//30 59//39 66//40 67//31
f 61//34 62//41 63//44 64//35
f 55//42 56//37 69//38 70//43
f 78//29 89//32 88//38 79//37
f 81//41 86//44 85//35 82//34
f 77//30 90//31 89//32 78//29
f 80//42 87//43 86//44 81//41
f 83//33 84//36 91//40 76//39
f 79//37 88//38 87//43 80//42
f 82//34 85//35 84//36 83//33
f 76//39 91//40 90//31 77//30
f 97//29 108//32 107//38 98//37
f 100//41 105//44 104//35 101//34
f 96//30 109//31 108//32 97//29
f 99//42 106//43 105//44 100//41
f 102//33 103//36 110//40 95//39
f 98//37 107//38 106//43 99//42
f 101//34 104//35 103//36 102//33
f 95//39 110//40 109//31 96//30
o Bottom_Cube
v 0.016000 0.008000 0.009600
v 0.016000 0.008000 0.000000
v 0.016000 0.000000 0.009600
v 0.016000 0.000000 0.000000
v 0.008000 0.008000 0.009600
v 0.008000 0.008000 0.000000
v 0.008000 0.000000 0.009600
v 0.008000 0.000000 0.000000
v 0.012000 0.006400 0.009600
v 0.010303 0.005697 0.009600
v 0.009600 0.004000 0.009600
v 0.010303 0.002303 0.009600
v 0.012000 0.001600 0.009600
v 0.013697 0.002303 0.009600
v 0.014400 0.004000 0.009600
v 0.013697 0.005697 0.009600
v 0.013697 0.005697 0.011400
v 0.014400 0.004000 0.011400
v 0.013697 0.002303 0.011400
v 0.012000 0.001600 0.011400
v 0.010303 0.002303 0.011400
v 0.009600 0.004000 0.011400
v 0.010303 0.005697 0.011400
v 0.012000 0.006400 0.011400
v 0.012000 0.004000 0.011400
v 0.010303 -0.002303 0.009600
v 0.009600 -0.004000 0.009600
v 0.010303 -0.005697 0.009600
v 0.012000 -0.006400 0.009600
v 0.000000 0.008000 0.009600
v 0.000000 0.008000 0.000000
v 0.000000 0.000000 0.009600
v 0.000000 0.000000 0.000000
v 0.004000 0.006400 0.009600
v 0.002303 0.005697 0.009600
v 0.001600 0.004000 0.009600
v 0.002303 0.002303 0.009600
v 0.004000 0.001600 0.009600
v 0.005697 0.002303 0.009600
v 0.006400 0.004000 0.009600
v 0.005697 0.005697 0.009600
v 0.005697 0.005697 0.011400
v 0.006400 0.004000 0.011400
v 0.005697 0.002303 0.011400
v 0.004000 0.001600 0.011400
v 0.002303 0.002303 0.011400
v 0.001600 0.004000 0.011400
v 0.002303 0.005697 0.011400
v 0.004000 0.006400 0.011400
v 0.004000 0.004000 0.011400
v 0.008000 -0.008000 0.000000
v 0.008000 -0.008000 0.009600
v -0.008000 0.008000 0.009600
v -0.008000 0.008000 0.000000
v -0.008000 0.000000 0.009600
v -0.008000 0.000000 0.000000
v -0.004000 0.006400 0.009600
v -0.005697 0.005697 0.009600
v -0.006400 0.004000 0.009600
v -0.005697 0.002303 0.009600
v -0.004000 0.001600 0.009600
v -0.002303 0.002303 0.009600
v -0.001600 0.004000 0.009600
v -0.002303 0.005697 0.009600
v -0.002303 0.005697 0.011400
v -0.001600 0.004000 0.011400
v -0.002303 0.002303 0.011400
v -0.004000 0.001600 0.011400
v -0.005697 0.002303 0.011400
v -0.006400 0.004000 0.011400
v -0.005697 0.005697 0.011400
v -0.004000 0.006400 0.011400
v -0.004000 0.004000 0.011400
v 0.016000 -0.008000 0.000000
v 0.016000 -0.008000 0.009600
v -0.016000 0.008000 0.009600
v -0.016000 0.008000 0.000000
v -0.016000 0.000000 0.009600
v -0.016000 0.000000 0.000000
v -0.012000 0.006400 0.009600
v -0.013697 0.005697 0.009600
v -0.014400 0.004000 0.009600
v -0.013697 0.002303 0.009600
v -0.012000 0.001600 0.009600
v -0.010303 0.002303 0.009600
v -0.009600 0.004000 0.009600
v -0.010303 0.005697 0.009600
v -0.010303 0.005697 0.011400
v -0.009600 0.004000 0.011400
v -0.010303 0.002303 0.011400
v -0.012000 0.001600 0.011400
v -0.013697 0.002303 0.011400
v -0.014400 0.004000 0.011400
v -0.013697 0.005697 0.011400
v -0.012000 0.006400 0.011400
v -0.012000 0.004000 0.011400
v 0.012000 -0.001600 0.009600
v 0.013697 -0.002303 0.009600
v 0.014400 -0.004000 0.009600
v 0.013697 -0.005697 0.009600
v 0.013697 -0.005697 0.011400
v 0.014400 -0.004000 0.011400
v 0.013697 -0.002303 0.011400
v 0.012000 -0.001600 0.011400
v 0.010303 -0.002303 0.011400
v 0.009600 -0.004000 0.011400
v 0.010303 -0.005697 0.011400
v 0.012000 -0.006400 0.011400
v 0.012000 -0.004000 0.011400
v 0.000000 -0.008000 0.009600
v 0.000000 -0.008000 0.000000
v 0.004000 -0.006400 0.009600
v 0.002303 -0.005697 0.009600
v 0.001600 -0.004000 0.009600
v 0.002303 -0.002303 0.009600
v 0.004000 -0.001600 0.009600
v 0.005697 -0.002303 0.009600
v 0.006400 -0.004000 0.009600
v 0.005697 -0.005697 0.009600
v 0.005697 -0.005697 0.011400
v 0.006400 -0.004000 0.011400
v 0.005697 -0.002303 0.011400
v 0.004000 -0.001600 0.011400
v 0.002303 -0.002303 0.011400
v 0.001600 -0.004000 0.011400
v 0.002303 -0.005697 0.011400
v 0.004000 -0.006400 0.011400
v 0.004000 -0.004000 0.011400
v -0.008000 -0.008000 0.009600
v -0.008000 -0.008000 0.000000
v -0.004000 -0.006400 0.009600
v -0.005697 -0.005697 0.009600
v -0.006400 -0.004000 0.009600
v -0.005697 -0.002303 0.009600
v -0.004000 -0.001600 0.009600
v -0.002303 -0.002303 0.009600
v -0.001600 -0.004000 0.009600
v -0.002303 -0.005697 0.009600
v -0.002303 -0.005697 0.011400
v -0.001600 -0.004000 0.011400
v -0.002303 -0.002303 0.011400
v -0.004000 -0.001600 0.011400
v -0.005697 -0.002303 0.011400
v -0.006400 -0.004000 0.011400
v -0.005697 -0.005697 0.011400
v -0.004000 -0.006400 0.011400
v -0.004000 -0.004000 0.011400
v -0.016000 -0.008000 0.009600
v -0.016000 -0.008000 0.000000
v -0.012000 -0.006400 0.009600
v -0.013697 -0.005697 0.009600
v -0.014400 -0.004000 0.009600
v -0.013697 -0.002303 0.009600
v -0.012000 -0.001600 0.009600
v -0.010303 -0.002303 0.009600
v -0.009600 -0.004000 0.009600
v -0.010303 -0.005697 0.009600
v -0.010303 -0.005697 0.011400
v -0.009600 -0.004000 0.011400
v -0.010303 -0.002303 0.011400
v -0.012000 -0.001600 0.011400
v -0.013697 -0.002303 0.011400
v -0.014400 -0.004000 0.011400
v -0.013697 -0.005697 0.011400
v -0.012000 -0.006400 0.011400
v -0.012000 -0.004000 0.011400
vn 0.0000 0.0000 1.0000
vn 0.0000 0.0000 -1.0000
vn 0.0000 1.0000 0.0000
vn 1.0000 0.0000 0.0000
vn 0.0000 -1.0000 0.0000
vn -1.0000 0.0000 0.0000
vn 0.3827 -0.9239 0.0000
vn -0.3827 -0.9239 0.0000
vn -0.5943 0.0000 0.8042
vn -0.4203 -0.4203 0.8042
vn -0.5490 -0.5490 0.6302
vn -0.7764 0.0000 0.6302
vn 0.4203 -0.4203 0.8042
vn 0.5943 0.0000 0.8042
vn 0.7764 0.0000 0.6302
vn 0.5490 -0.5490 0.6302
vn -0.4203 0.4203 0.8042
vn -0.5490 0.5490 0.6302
vn 0.0000 -0.5943 0.8042
vn 0.0000 -0.7764 0.6302
vn 0.4203 0.4203 0.8042
vn 0.0000 0.5943 0.8042
vn 0.0000 0.7764 0.6302
vn 0.5490 0.5490 0.6302
s off
f 209//45 114//45 208//45
f 117//46 113//46 115//46 119//46
f 117//47 116//47 112//47 113//47
f 113//48 112//48 114//48 115//48
f 125//45 124//45 114//45
f 118//45 114//45 124//45
f 124//45 123//45 118//45
f 122//45 118//45 123//45
f 118//45 122//45 116//45
f 122//45 121//45 116//45
f 120//45 116//45 121//45
f 116//45 120//45 112//45
f 120//45 127//45 112//45
f 126//45 112//45 127//45
f 112//45 126//45 114//45
f 126//45 125//45 114//45
f 135//45 134//45 136//45
f 131//45 130//45 136//45
f 130//45 129//45 136//45
f 134//45 133//45 136//45
f 133//45 132//45 136//45
f 129//45 128//45 136//45
f 128//45 135//45 136//45
f 132//45 131//45 136//45
f 185//48 115//48 114//48 186//48
f 142//46 117//46 119//46 144//46
f 142//47 141//47 116//47 117//47
f 150//45 149//45 118//45
f 143//45 118//45 149//45
f 149//45 148//45 143//45
f 147//45 143//45 148//45
f 143//45 147//45 141//45
f 147//45 146//45 141//45
f 145//45 141//45 146//45
f 141//45 145//45 116//45
f 145//45 152//45 116//45
f 151//45 116//45 152//45
f 116//45 151//45 118//45
f 151//45 150//45 118//45
f 160//45 159//45 161//45
f 156//45 155//45 161//45
f 155//45 154//45 161//45
f 159//45 158//45 161//45
f 158//45 157//45 161//45
f 154//45 153//45 161//45
f 153//45 160//45 161//45
f 157//45 156//45 161//45
f 162//49 185//49 186//49 163//49
f 165//46 142//46 144//46 167//46
f 165//47 164//47 141//47 142//47
f 173//45 172//45 143//45
f 166//45 143//45 172//45
f 172//45 171//45 166//45
f 170//45 166//45 171//45
f 166//45 170//45 164//45
f 170//45 169//45 164//45
f 168//45 164//45 169//45
f 164//45 168//45 141//45
f 168//45 175//45 141//45
f 174//45 141//45 175//45
f 141//45 174//45 143//45
f 174//45 173//45 143//45
f 183//45 182//45 184//45
f 179//45 178//45 184//45
f 178//45 177//45 184//45
f 182//45 181//45 184//45
f 181//45 180//45 184//45
f 177//45 176//45 184//45
f 176//45 183//45 184//45
f 180//45 179//45 184//45
f 162//46 119//46 115//46 185//46
f 188//46 165//46 167//46 190//46
f 188//47 187//47 164//47 165//47
f 196//45 195//45 166//45
f 189//45 166//45 195//45
f 195//45 194//45 189//45
f 193//45 189//45 194//45
f 189//45 193//45 187//45
f 193//45 192//45 187//45
f 191//45 187//45 192//45
f 187//45 191//45 164//45
f 191//45 198//45 164//45
f 197//45 164//45 198//45
f 164//45 197//45 166//45
f 197//45 196//45 166//45
f 206//45 205//45 207//45
f 202//45 201//45 207//45
f 201//45 200//45 207//45
f 205//45 204//45 207//45
f 204//45 203//45 207//45
f 200//45 199//45 207//45
f 199//45 206//45 207//45
f 203//45 202//45 207//45
f 187//50 188//50 190//50 189//50
f 118//45 208//45 114//45
f 208//45 118//45 137//45
f 138//45 137//45 118//45
f 118//45 163//45 138//45
f 138//45 163//45 139//45
f 140//45 139//45 163//45
f 163//45 186//45 140//45
f 140//45 186//45 211//45
f 210//45 211//45 186//45
f 186//45 114//45 210//45
f 210//45 114//45 209//45
f 211//51 212//51 219//51 140//51
f 140//52 219//52 218//52 139//52
f 219//45 220//45 218//45
f 215//45 220//45 214//45
f 214//45 220//45 213//45
f 218//45 220//45 217//45
f 217//45 220//45 216//45
f 213//45 220//45 212//45
f 212//45 220//45 219//45
f 216//45 220//45 215//45
f 222//46 144//46 119//46 162//46
f 222//49 162//49 163//49 221//49
f 228//45 118//45 227//45
f 143//45 227//45 118//45
f 227//45 143//45 226//45
f 225//45 226//45 143//45
f 143//45 221//45 225//45
f 225//45 221//45 224//45
f 223//45 224//45 221//45
f 221//45 163//45 223//45
f 223//45 163//45 230//45
f 229//45 230//45 163//45
f 163//45 118//45 229//45
f 229//45 118//45 228//45
f 238//45 239//45 237//45
f 234//45 239//45 233//45
f 233//45 239//45 232//45
f 237//45 239//45 236//45
f 236//45 239//45 235//45
f 232//45 239//45 231//45
f 231//45 239//45 238//45
f 235//45 239//45 234//45
f 241//46 167//46 144//46 222//46
f 241//49 222//49 221//49 240//49
f 247//45 143//45 246//45
f 166//45 246//45 143//45
f 246//45 166//45 245//45
f 244//45 245//45 166//45
f 166//45 240//45 244//45
f 244//45 240//45 243//45
f 242//45 243//45 240//45
f 240//45 221//45 242//45
f 242//45 221//45 249//45
f 248//45 249//45 221//45
f 221//45 143//45 248//45
f 248//45 143//45 247//45
f 257//45 258//45 256//45
f 253//45 258//45 252//45
f 252//45 258//45 251//45
f 256//45 258//45 255//45
f 255//45 258//45 254//45
f 251//45 258//45 250//45
f 250//45 258//45 257//45
f 254//45 258//45 253//45
f 260//46 190//46 167//46 241//46
f 260//49 241//49 240//49 259//49
f 266//45 166//45 265//45
f 189//45 265//45 166//45
f 265//45 189//45 264//45
f 263//45 264//45 189//45
f 189//45 259//45 263//45
f 263//45 259//45 262//45
f 261//45 262//45 259//45
f 259//45 240//45 261//45
f 261//45 240//45 268//45
f 267//45 268//45 240//45
f 240//45 166//45 267//45
f 267//45 166//45 266//45
f 276//45 277//45 275//45
f 272//45 277//45 271//45
f 271//45 277//45 270//45
f 275//45 277//45 274//45
f 274//45 277//45 273//45
f 270//45 277//45 269//45
f 269//45 277//45 276//45
f 273//45 277//45 272//45
f 259//50 189//50 190//50 260//50
s 1
f 122//53 123//54 132//55 133//56
f 125//57 126//58 129//59 130//60
f 121//61 122//53 133//56 134//62
f 124//63 125//57 130//60 131//64
f 127//65 120//66 135//67 128//68
f 123//54 124//63 131//64 132//55
f 126//58 127//65 128//68 129//59
f 120//66 121//61 134//62 135//67
f 147//53 148//54 157//55 158//56
f 150//57 151//58 154//59 155//60
f 146//61 147//53 158//56 159//62
f 149//63 150//57 155//60 156//64
f 152//65 145//66 160//67 153//68
f 148//54 149//63 156//64 157//55
f 151//58 152//65 153//68 154//59
f 145//66 146//61 159//62 160//67
f 170//53 171//54 180//55 181//56
f 173//57 174//58 177//59 178//60
f 169//61 170//53 181//56 182//62
f 172//63 173//57 178//60 179//64
f 175//65 168//66 183//67 176//68
f 171//54 172//63 179//64 180//55
f 174//58 175//65 176//68 177//59
f 168//66 169//61 182//62 183//67
f 193//53 194//54 203//55 204//56
f 196//57 197//58 200//59 201//60
f 192//61 193//53 204//56 205//62
f 195//63 196//57 201//60 202//64
f 198//65 191//66 206//67 199//68
f 194//54 195//63 202//64 203//55
f 197//58 198//65 199//68 200//59
f 191//66 192//61 205//62 206//67
f 138//53 217//56 216//62 137//61
f 209//65 214//68 213//59 210//58
f 139//54 218//55 217//56 138//53
f 208//66 215//67 214//68 209//65
f 137//61 216//62 215//67 208//66
f 210//58 213//59 212//60 211//57
f 225//53 236//56 235//62 226//61
f 228//65 233//68 232//59 229//58
f 224//54 237//55 236//56 225//53
f 227//66 234//67 233//68 228//65
f 230//57 231//60 238//64 223//63
f 226//61 235//62 234//67 227//66
f 229//58 232//59 231//60 230//57
f 223//63 238//64 237//55 224//54
f 244//53 255//56 254//62 245//61
f 247//65 252//68 251//59 248//58
f 243//54 256//55 255//56 244//53
f 246//66 253//67 252//68 247//65
f 249//57 250//60 257//64 242//63
f 245//61 254//62 253//67 246//66
f 248//58 251//59 250//60 249//57
f 242//63 257//64 256//55 243//54
f 263//53 274//56 273//62 264//61
f 266//65 271//68 270//59 267//58
f 262//54 275//55 274//56 263//53
f 265//66 272//67 271//68 266//65
f 268//57 269//60 276//64 261//63
f 264//61 273//62 272//67 265//66
f 267//58 270//59 269//60 268//57
f 261//63 276//64 275//55 262//54
